<svg xmlns="http://www.w3.org/2000/svg" viewBox="0 0 901.32 146.21"><defs><style>.cls-1{fill:#231f20;}.cls-2{fill:#2196f3;}</style></defs><g id="Layer_2" data-name="Layer 2"><g id="Layer_1-2" data-name="Layer 1"><path class="cls-1" d="M0,146.21V33.14H20.14v9.75h2.93a25.07,25.07,0,0,1,8.61-8.37q5.85-3.64,16.73-3.65A34.85,34.85,0,0,1,79.77,49.71q5,9.27,5,22.42v2.6q0,13.15-5,22.42A34.89,34.89,0,0,1,48.41,116a37.93,37.93,0,0,1-12.26-1.71,23,23,0,0,1-8-4.39,26.86,26.86,0,0,1-4.8-5.44H20.47v41.75ZM42.24,98.13A21.78,21.78,0,0,0,58.08,92q6.26-6.09,6.25-17.79V72.62q0-11.7-6.33-17.79a21.87,21.87,0,0,0-15.76-6.09,21.87,21.87,0,0,0-15.76,6.09q-6.33,6.09-6.34,17.79v1.62q0,11.7,6.34,17.79A21.87,21.87,0,0,0,42.24,98.13Z"/><path class="cls-1" d="M128.67,116a38,38,0,0,1-15.44-3,25.05,25.05,0,0,1-10.8-8.77,24.11,24.11,0,0,1-4-14.06q0-8.28,4-13.89a24.2,24.2,0,0,1,11-8.44A42.9,42.9,0,0,1,129.64,65h22.09V60.43a12.82,12.82,0,0,0-3.57-9.34q-3.57-3.65-11.37-3.65-7.64,0-11.37,3.49a16.53,16.53,0,0,0-4.88,9L101.7,53.61A32.73,32.73,0,0,1,108,42.32,31,31,0,0,1,119.49,34q7.22-3.18,17.62-3.17,15.93,0,25.18,8t9.26,23.07V92q0,4.88,4.55,4.88h6.5v16.89H169A16.09,16.09,0,0,1,159,110.8a9.28,9.28,0,0,1-3.89-7.8v-.16h-3.09a21.22,21.22,0,0,1-2.93,5.11,19,19,0,0,1-7.14,5.61C138.74,115.18,134.29,116,128.67,116Zm3.57-16.58q8.61,0,14-4.79t5.44-12.75V80.25H131.1c-3.79,0-6.77.82-8.93,2.44a8,8,0,0,0-3.25,6.82,8.75,8.75,0,0,0,3.41,7.15C124.6,98.51,127.91,99.42,132.24,99.42Z"/><path class="cls-1" d="M233.77,116a45.8,45.8,0,0,1-21.2-4.88,36.69,36.69,0,0,1-15-14.13Q192,87.72,192,74.57V72.29q0-13.15,5.53-22.41a36.65,36.65,0,0,1,15-14.14,45.79,45.79,0,0,1,21.2-4.87q11.53,0,19.82,4.06A35.53,35.53,0,0,1,267,46.06a38.66,38.66,0,0,1,6.74,16l-19.82,4.22A23.37,23.37,0,0,0,251,57.51a16.37,16.37,0,0,0-6.42-6.17,21.18,21.18,0,0,0-10.32-2.28,23.1,23.1,0,0,0-11.13,2.68,19.11,19.11,0,0,0-7.79,8,26.91,26.91,0,0,0-2.85,12.92v1.62a26.88,26.88,0,0,0,2.85,12.92,19.06,19.06,0,0,0,7.79,8,23,23,0,0,0,11.13,2.68q9.27,0,14.05-4.79a22.49,22.49,0,0,0,6.1-12.59l19.82,4.71A44.72,44.72,0,0,1,267,100.81a35.41,35.41,0,0,1-13.41,11.12Q245.31,116,233.77,116Z"/><path class="cls-1" d="M291.12,113.72V0h20.47V62.87h2.93l26.64-29.73H367.8l-37.2,39,38.5,41.59H342.78l-28.26-32h-2.93v32Z"/><path class="cls-1" d="M414.59,116a42.81,42.81,0,0,1-21.2-5.12,36,36,0,0,1-14.3-14.46q-5.11-9.35-5.11-22v-2q0-12.67,5-22A35.73,35.73,0,0,1,393.15,36a42.34,42.34,0,0,1,21.12-5.11q11.85,0,20.63,5.28a36.17,36.17,0,0,1,13.64,14.62,46.24,46.24,0,0,1,4.88,21.69v7H394.77a18.23,18.23,0,0,0,6.17,13.49,20.79,20.79,0,0,0,14.3,5.2q8.61,0,12.67-3.74a26.24,26.24,0,0,0,6.18-8.29l16.73,8.78a52.18,52.18,0,0,1-6.58,9.17,35.45,35.45,0,0,1-11.45,8.45Q425.64,116,414.59,116ZM394.93,64.17h37.69A16.09,16.09,0,0,0,427,53q-5-4.22-12.92-4.22-8.28,0-13.16,4.22A18.24,18.24,0,0,0,394.93,64.17Z"/><path class="cls-1" d="M499.88,113.72q-8,0-12.91-5t-5-13.24V50H461.87V33.14H482v-25h20.47v25h22.1V50h-22.1V92q0,4.88,4.55,4.88h15.6v16.89Z"/><path class="cls-2" d="M549.59,113.72,538.22,33.14h20.31l7.15,66.77h2.92L579,33.14h32.82l10.39,66.77h2.93l7.15-66.77h20.3l-11.37,80.58h-34L596.87,47H594l-10.4,66.77Z"/><path class="cls-2" d="M695.48,116a38,38,0,0,1-15.43-3,25.14,25.14,0,0,1-10.81-8.77,24.18,24.18,0,0,1-4-14.06q0-8.28,4-13.89a24.3,24.3,0,0,1,11-8.44A43,43,0,0,1,696.46,65h22.09V60.43A12.82,12.82,0,0,0,715,51.09q-3.59-3.65-11.38-3.65-7.64,0-11.37,3.49a16.58,16.58,0,0,0-4.87,9l-18.85-6.34a32.76,32.76,0,0,1,6.26-11.29A31,31,0,0,1,686.3,34q7.23-3.18,17.63-3.17,15.92,0,25.18,8t9.26,23.07V92q0,4.88,4.55,4.88h6.5v16.89H735.77a16.06,16.06,0,0,1-9.91-2.92A9.27,9.27,0,0,1,722,103v-.16h-3.08A21.22,21.22,0,0,1,716,108a19.07,19.07,0,0,1-7.15,5.61Q703.93,116,695.48,116Zm3.58-16.58q8.6,0,14.05-4.79t5.44-12.75V80.25H697.92c-3.79,0-6.77.82-8.94,2.44a8.06,8.06,0,0,0-3.25,6.82,8.76,8.76,0,0,0,3.42,7.15C691.42,98.51,694.72,99.42,699.06,99.42Z"/><path class="cls-2" d="M764.36,113.72V33.14h20.15v9.1h2.92a12.86,12.86,0,0,1,5.93-7.15A19.83,19.83,0,0,1,803,32.82h9.75V51H802.7q-7.8,0-12.83,4.14t-5,12.76v45.81Z"/><path class="cls-2" d="M862.49,116a42.81,42.81,0,0,1-21.2-5.12A36,36,0,0,1,827,96.42q-5.12-9.35-5.12-22v-2q0-12.67,5-22A35.77,35.77,0,0,1,841,36a42.39,42.39,0,0,1,21.12-5.11q11.87,0,20.64,5.28a36.31,36.31,0,0,1,13.64,14.62,46.24,46.24,0,0,1,4.88,21.69v7H842.67a18.2,18.2,0,0,0,6.17,13.49,20.78,20.78,0,0,0,14.3,5.2q8.61,0,12.67-3.74A26.2,26.2,0,0,0,882,86.1l16.74,8.78a52.7,52.7,0,0,1-6.58,9.17,35.39,35.39,0,0,1-11.46,8.45Q873.54,116,862.49,116ZM842.83,64.17h37.69A16.09,16.09,0,0,0,874.92,53q-5-4.22-12.92-4.22-8.28,0-13.16,4.22A18.19,18.19,0,0,0,842.83,64.17Z"/></g></g></svg>
