<svg xmlns="http://www.w3.org/2000/svg" viewBox="0 0 1920.83 1080.7"><defs><style>.cls-1{fill:none;stroke:#000;stroke-miterlimit:10;stroke-width:0.5px;}</style></defs><g id="Layer_2" data-name="Layer 2"><g id="Layer_1-2" data-name="Layer 1"><line class="cls-1" x1="192.58" y1="0.13" x2="192.58" y2="1080.13"/><line class="cls-1" x1="576.58" y1="0.13" x2="576.58" y2="1080.13"/><line class="cls-1" x1="384.52" x2="384.52" y2="1080"/><line class="cls-1" x1="768.58" y1="0.25" x2="768.58" y2="1080.25"/><line class="cls-1" x1="1152.58" y1="0.25" x2="1152.58" y2="1080.25"/><line class="cls-1" x1="960.52" y1="0.13" x2="960.52" y2="1080.13"/><line class="cls-1" x1="1344.58" y1="0.25" x2="1344.58" y2="1080.25"/><line class="cls-1" x1="1536.58" y1="0.38" x2="1536.58" y2="1080.38"/><line class="cls-1" x1="1920.58" y1="0.38" x2="1920.58" y2="1080.38"/><line class="cls-1" x1="0.29" y1="0.7" x2="0.29" y2="1080.7"/><line class="cls-1" x1="1728.52" y1="0.25" x2="1728.52" y2="1080.25"/><line class="cls-1" x1="1920" y1="108.67" y2="112.08"/><line class="cls-1" x1="1920" y1="213.85" y2="217.26"/><line class="cls-1" x1="1920" y1="321.25" y2="324.66"/><line class="cls-1" x1="1920" y1="429.83" y2="433.24"/><line class="cls-1" x1="1920" y1="537.29" y2="540.7"/><line class="cls-1" x1="1920" y1="642.47" y2="645.88"/><line class="cls-1" x1="1920" y1="749.87" y2="753.28"/><line class="cls-1" x1="1920" y1="858.45" y2="861.86"/><line class="cls-1" x1="1920" y1="968.78" y2="972.19"/><line class="cls-1" x1="0.07" y1="0.86" x2="1920.36" y2="0.54"/><line class="cls-1" x1="0.07" y1="1080.45" x2="1920.36" y2="1080.13"/></g></g></svg>
