<svg xmlns="http://www.w3.org/2000/svg" viewBox="0 0 445.87 181.3"><defs><style>.cls-1{fill:#181818;}.cls-2{fill:#e500ff;}</style></defs><g id="Layer_2" data-name="Layer 2"><g id="Layer_1-2" data-name="Layer 1"><path class="cls-1" d="M83.61,84.71H29.85a4.83,4.83,0,0,1-4.57-3.29L16.35,54.63a4.81,4.81,0,0,1,4.57-6.33H74.68a4.81,4.81,0,0,1,4.57,3.29l8.93,26.78A4.82,4.82,0,0,1,83.61,84.71Z"/><path class="cls-1" d="M99.72,133H46a4.82,4.82,0,0,1-4.57-3.29l-8.92-26.78A4.81,4.81,0,0,1,37,96.6H90.79a4.8,4.8,0,0,1,4.56,3.29l8.93,26.78A4.81,4.81,0,0,1,99.72,133Z"/><path class="cls-1" d="M67.51,36.41H13.75a4.81,4.81,0,0,1-4.57-3.29L.25,6.33A4.81,4.81,0,0,1,4.82,0H58.58a4.83,4.83,0,0,1,4.57,3.29l8.93,26.78A4.82,4.82,0,0,1,67.51,36.41Z"/><path class="cls-1" d="M143.43,36.41H90.77a4.81,4.81,0,0,1-4.56-3.29L77.28,6.33A4.81,4.81,0,0,1,81.84,0H134.5a4.83,4.83,0,0,1,4.57,3.29L148,30.07A4.81,4.81,0,0,1,143.43,36.41Z"/><path class="cls-2" d="M239.8,36.41H186a4.83,4.83,0,0,1-4.57-3.29L172.54,6.33A4.81,4.81,0,0,1,177.1,0h53.77a4.81,4.81,0,0,1,4.56,3.29l8.93,26.78A4.81,4.81,0,0,1,239.8,36.41Z"/><path class="cls-2" d="M392.75,36.41H339a4.81,4.81,0,0,1-4.56-3.29L325.49,6.33A4.81,4.81,0,0,1,330.06,0h53.76a4.83,4.83,0,0,1,4.57,3.29l8.93,26.78A4.82,4.82,0,0,1,392.75,36.41Z"/><path class="cls-2" d="M425,133H371.19a4.82,4.82,0,0,1-4.57-3.29l-8.93-26.78a4.81,4.81,0,0,1,4.57-6.33H416a4.8,4.8,0,0,1,4.56,3.29l8.93,26.78A4.81,4.81,0,0,1,425,133Z"/><path class="cls-2" d="M408.85,84.71H355.09a4.82,4.82,0,0,1-4.57-3.29l-8.93-26.79a4.81,4.81,0,0,1,4.57-6.33h53.76a4.81,4.81,0,0,1,4.57,3.29l8.93,26.78A4.82,4.82,0,0,1,408.85,84.71Z"/><path class="cls-1" d="M159.53,84.71H106.88a4.83,4.83,0,0,1-4.57-3.29L93.38,54.63A4.81,4.81,0,0,1,98,48.3H150.6a4.82,4.82,0,0,1,4.57,3.29l8.93,26.78A4.82,4.82,0,0,1,159.53,84.71Z"/><path class="cls-2" d="M255.9,84.71H202.13a4.81,4.81,0,0,1-4.56-3.29l-8.93-26.79a4.81,4.81,0,0,1,4.56-6.33H247a4.82,4.82,0,0,1,4.57,3.29l8.93,26.78A4.82,4.82,0,0,1,255.9,84.71Z"/><path class="cls-1" d="M115.82,181.3H62.05A4.8,4.8,0,0,1,57.49,178l-8.93-26.78a4.81,4.81,0,0,1,4.56-6.33h53.77a4.8,4.8,0,0,1,4.56,3.29L120.38,175A4.81,4.81,0,0,1,115.82,181.3Z"/><path class="cls-2" d="M272,133H218.24a4.8,4.8,0,0,1-4.57-3.29l-8.93-26.78a4.81,4.81,0,0,1,4.57-6.33h53.76a4.81,4.81,0,0,1,4.57,3.29l8.93,26.78A4.81,4.81,0,0,1,272,133Z"/><path class="cls-2" d="M288.1,181.3H234.34a4.82,4.82,0,0,1-4.57-3.29l-8.93-26.78a4.81,4.81,0,0,1,4.57-6.33h53.77a4.8,4.8,0,0,1,4.56,3.29L292.67,175A4.81,4.81,0,0,1,288.1,181.3Z"/><path class="cls-2" d="M347.92,133H295.27a4.82,4.82,0,0,1-4.57-3.29l-8.93-26.78a4.81,4.81,0,0,1,4.57-6.33H339a4.82,4.82,0,0,1,4.57,3.29l8.93,26.78A4.81,4.81,0,0,1,347.92,133Z"/><path class="cls-2" d="M364,181.3H311.37A4.82,4.82,0,0,1,306.8,178l-8.93-26.78a4.82,4.82,0,0,1,4.57-6.33H355.1a4.8,4.8,0,0,1,4.56,3.29L368.59,175A4.81,4.81,0,0,1,364,181.3Z"/><path class="cls-2" d="M441.06,181.3H387.29a4.8,4.8,0,0,1-4.56-3.29l-8.93-26.78a4.81,4.81,0,0,1,4.56-6.33h53.77a4.8,4.8,0,0,1,4.56,3.29L445.62,175A4.81,4.81,0,0,1,441.06,181.3Z"/></g></g></svg>